<svg id="Layer_1" xmlns="http://www.w3.org/2000/svg" version="1.1" viewBox="141 136.2 311.5 321.7">
  
  <defs>
    <style>
      .st0 {
        fill: #ec671b;
      }

      .st1 {
        fill: #333;
      }
    </style>
  </defs>
  
  
  
  <path class="st0" d="M270,208.8999939c1-.5,6.2999878-6.6000061,7.7000122-8.1000061,3.3999939-3.3999939,6.7000122-5.1000061,6-11-7.6000061-1.8000031-18.6000061,9.1000061-18.7000122,16.1000061,0,3,2.3999939,4.3999939,5,3.1000061v-.1000061Z"/>
  <path class="st0" d="M293.3999939,186.6999969c1.8999939-.5,13.7000122-6.8000031,14.8999939-8.1999969,3.8999939-4.6000061-1.2999878-6.5-5.3999939-5.8999939-3.5.5-13.8999939,6.3000031-14.7000122,9.8000031-.7999878,3.6999969,1.8999939,5.1000061,5.2000122,4.1999969v.0999908Z"/>
  <path class="st0" d="M247.5,336.2000122c-1.8000031,1.6000061-2,7.3999939-2.8000031,9.8999939-1,3.6000061-5.1000061,9.1000061-.8999939,11.8999939,3,.7999878,7.1000061-6.6000061,8-9,1.1000061-2.7999878,3.3000031-10.6000061,1.1000061-12.7999878-1.3999939-1.3999939-4.1000061-1.2999878-5.5,0h.0999908Z"/>
  <path class="st0" d="M237.8999939,366.2000122l-8.3000031,13.7999878c1,5.6000061,6.3999939,3.2999878,9.3000031.3999939,1.5-1.5,5.3999939-8.2000122,5.8000031-10.2999878,1.1999969-6.2000122-2.3999939-8-6.8000031-4v.1000061Z"/>
  <path class="st0" d="M331.6000061,165c-3.1000061,0-14,2.8000031-15,6-2.2999878,7.6000061,13.7000122,2.5,16.7000122.8999939,4.5-2.3999939,3.2999878-6.8000031-1.7000122-6.8999939Z"/>
  <path class="st0" d="M359.8999939,172.3999939c4.1000061-4.8999939-7.2999878-6.6000061-10.2000122-6.6000061-2.6000061,0-10.8999939,1.3000031-7.2999878,5.6999969,1.7999878,2.1000061,15.2999878,3.6000061,17.5,1v-.0999908Z"/>
  <path class="st0" d="M248.1000061,310.2000122c-2.8000031.8999939-1.8999939,9.7000122-1.1999969,12,.6000061,2,3.6999969,7.7999878,5.8000031,4.7000122,2.1999969-3.2999878,1.1000061-9.6000061-.1999969-13.2000122-.8000031-2.2000122-1.6999969-4.3999939-4.5-3.5h.0999908Z"/>
</svg>