<svg xmlns="http://www.w3.org/2000/svg" viewBox="0 0 10 0.15"><path d="M8.9257,-2.1843C8.7616,-2.5153 8.6034,-2.8352 8.4452,-3.1449L8.4175,-3.1051L8.4185,-3.0955L9.9006,-0.0416L0.0844,-0.0311L1.3531,-1.6875L2.3373,-2.99L2.3067,-3.011C2.1742,-2.8475 2.0436,-2.6763 1.9108,-2.5032C1.3691,-1.7976 0.7597,-1.0257 0.1458,-0.1905C0.119,-0.1536 0.0272,-0.0375 0.0109,-0.009C0.0101,-0.006 -0.011,0.0574 -0.0135,0.0665C-0.0169,0.0786 -0.0211,0.0938 -0.0192,0.1044C-0.0188,0.1075 0.0029,0.1564 0.0049,0.1579C0.0655,0.2026 0.1806,0.1847 0.26,0.1866C0.419,0.1935 0.5797,0.1881 0.7397,0.1889C3.9014,0.1945 6.9503,0.2088 9.8902,0.2111C9.9129,0.2112 9.9957,0.2029 10.0064,0.1886C10.034,0.1527 9.9888,0.0639 10.0023,0.0213C9.628,-0.7647 9.2644,-1.4999 8.9245,-2.1867L8.9257,-2.1843ZM9.9445,0.1236C9.9386,0.1408 9.8908,0.1305 9.8778,0.1304C9.8681,0.1304 9.8593,0.1361 9.8475,0.136C9.1834,0.1585 8.4908,0.1246 7.8119,0.1254C5.4032,0.1232 2.9218,0.1059 0.3635,0.1231C0.2828,0.1227 0.1791,0.1313 0.1031,0.1218C0.081,0.1186 0.0614,0.1018 0.0356,0.1032L0.0599,0.0275L9.9326,0.0337L9.9445,0.1236L9.9445,0.1236Z"/></svg>