<svg xmlns="http://www.w3.org/2000/svg" width="1352" height="1154" viewBox="772.337 321.5 84.518 72.114"><g><g fill="#fff" stroke="#fff" stroke-width="0.6" stroke-linejoin="round"><path d="M846,377.1C846.9,367.2 847.9,357.4 847.4,347.4L850.6,347C850.9,346.5 850.9,345.9 850.7,345.4C850.3,344 835.4,334.4 833,332.9C827.6,329.5 822.2,326.4 816.5,323.5C806.9,327.3 798.2,333 789.2,337.9C786.6,339.4 774.7,344.4 774.7,347.2C774.7,349.1 777.5,348.9 778.8,348.9L779.3,379.1C772.2,377.4 773.4,390.5 778.6,391.1C795.3,393.1 815.3,388.6 832.4,389.6L854.3,388C855.8,387 854,379 853.1,377.2L846.1,377.2L846,377.1Z"/><path d="M843.7,362.9C843.7,367.6 843.2,372.6 844.2,377.1L838.4,377.1L838.4,347.9L843.7,347.9C843.4,351.8 843.1,355.7 843.2,359.7C843.2,360.8 843.7,361.9 843.7,363L843.7,362.9Z"/><path d="M817.1,327.2L818.2,327.4C826.2,333.1 835.8,337.3 842.7,344.4L815.6,343.9C804.4,344.9 793,344.2 781.8,345.4L817.1,327.2Z"/><path d="M835.2,347.8L835,377.1L819.6,377.1L820.1,348.8L835.2,347.8L835.2,347.8Z"/><path d="M816.8,377.1L811.8,377.6L810.6,348.8L816.4,348.8L816.9,377.1L816.8,377.1Z"/><path d="M790.4,348.8L806.7,348.8L806.7,376.9C806.7,377 807.4,377.4 807.2,377.6L791.4,378.1C792.8,368.5 791.1,358.5 790.4,348.8L790.4,348.8Z"/><path d="M786.5,348.8C785.2,358.5 787.3,368.1 788,377.8L782.2,378.6L780.8,348.9L786.6,348.9L786.5,348.8Z"/><path d="M814.6,386.7C802.8,387 790.9,386.3 779.1,388.1C777.7,387.8 778.6,382.7 778.3,381.4L809.3,381.9L850.3,380L851.3,385.8L814.6,386.8L814.6,386.7Z"/></g><g fill="#333"><path d="M846,377.1C846.9,367.2 847.9,357.4 847.4,347.4L850.6,347C850.9,346.5 850.9,345.9 850.7,345.4C850.3,344 835.4,334.4 833,332.9C827.6,329.5 822.2,326.4 816.5,323.5C806.9,327.3 798.2,333 789.2,337.9C786.6,339.4 774.7,344.4 774.7,347.2C774.7,349.1 777.5,348.9 778.8,348.9L779.3,379.1C772.2,377.4 773.4,390.5 778.6,391.1C795.3,393.1 815.3,388.6 832.4,389.6L854.3,388C855.8,387 854,379 853.1,377.2L846.1,377.2L846,377.1ZM843.7,362.9C843.7,367.6 843.2,372.6 844.2,377.1L838.4,377.1L838.4,347.9L843.7,347.9C843.4,351.8 843.1,355.7 843.2,359.7C843.2,360.8 843.7,361.9 843.7,363L843.7,362.9ZM817.1,327.2L818.2,327.4C826.2,333.1 835.8,337.3 842.7,344.4L815.6,343.9C804.4,344.9 793,344.2 781.8,345.4L817.1,327.2ZM835.2,347.8L835,377.1L819.6,377.1L820.1,348.8L835.2,347.8L835.2,347.8ZM816.8,377.1L811.8,377.6L810.6,348.8L816.4,348.8L816.9,377.1L816.8,377.1ZM790.4,348.8L806.7,348.8L806.7,376.9C806.7,377 807.4,377.4 807.2,377.6L791.4,378.1C792.8,368.5 791.1,358.5 790.4,348.8L790.4,348.8ZM786.5,348.8C785.2,358.5 787.3,368.1 788,377.8L782.2,378.6L780.8,348.9L786.6,348.9L786.5,348.8ZM814.6,386.7C802.8,387 790.9,386.3 779.1,388.1C777.7,387.8 778.6,382.7 778.3,381.4L809.3,381.9L850.3,380L851.3,385.8L814.6,386.8L814.6,386.7Z"/></g></g></svg>