<svg xmlns="http://www.w3.org/2000/svg" width="535" height="675" viewBox="666.826 309.1 33.435 42.2"><g><g fill="#fff" stroke="#fff" stroke-width="0.6" stroke-linejoin="round"><path d="M696.3,344.7C694.9,343.6 696.5,333.8 696.3,331.3C696.1,328.4 694.8,326.3 694.4,323.2C694.1,321.5 693.7,314.2 692.2,313.8L690.8,314.2L690.6,320C688.8,318 683.2,310.3 680.5,311.1L669.6,326.1C667.5,332.6 670.1,339 670.9,345.2C671,346.3 669.8,347.3 671.1,348.3C673.7,350.4 684.8,348.6 688.4,348.3C689.4,348.3 700.6,348.7 698,345.4C697.6,345 696.7,345 696.3,344.7L696.3,344.7Z"/><path d="M680.2,315.2L690.5,324.8C684.9,325.2 679.3,323.6 673.7,324.8L680.2,315.2Z"/><path d="M686.7,344C687,341.5 686.6,336.6 683.1,336.8C678.3,337.1 681.7,343.7 680.9,344.5L672.3,345C673.6,339.6 671.6,334.1 671.8,328.7L691,327.5L693.4,344.6L686.7,344.1L686.7,344Z"/></g><g fill="#333"><path d="M696.3,344.7C694.9,343.6 696.5,333.8 696.3,331.3C696.1,328.4 694.8,326.3 694.4,323.2C694.1,321.5 693.7,314.2 692.2,313.8L690.8,314.2L690.6,320C688.8,318 683.2,310.3 680.5,311.1L669.6,326.1C667.5,332.6 670.1,339 670.9,345.2C671,346.3 669.8,347.3 671.1,348.3C673.7,350.4 684.8,348.6 688.4,348.3C689.4,348.3 700.6,348.7 698,345.4C697.6,345 696.7,345 696.3,344.7L696.3,344.7ZM680.2,315.2L690.5,324.8C684.9,325.2 679.3,323.6 673.7,324.8L680.2,315.2ZM686.7,344C687,341.5 686.6,336.6 683.1,336.8C678.3,337.1 681.7,343.7 680.9,344.5L672.3,345C673.6,339.6 671.6,334.1 671.8,328.7L691,327.5L693.4,344.6L686.7,344.1L686.7,344Z"/></g></g></svg>